<?xml version="1.0" encoding="UTF-8" standalone="no"?>
<svg
   xmlns:dc="http://purl.org/dc/elements/1.1/"
   xmlns:cc="http://creativecommons.org/ns#"
   xmlns:rdf="http://www.w3.org/1999/02/22-rdf-syntax-ns#"
   xmlns:svg="http://www.w3.org/2000/svg"
   xmlns="http://www.w3.org/2000/svg"
   viewBox="0 0 1508.0267 1005.36"
   height="1005.36"
   width="1508.0267"
   xml:space="preserve"
   id="svg2"
   version="1.1">
  <metadata id="metadata8">
    <rdf:RDF>
      <cc:Work rdf:about="">
         <dc:format>image/svg+xml</dc:format>
         <dc:type rdf:resource="http://purl.org/dc/dcmitype/StillImage" />
      </cc:Work>
    </rdf:RDF>
  </metadata>
  <defs id="defs6" />
  <g transform="matrix(1.3333333,0,0,-1.3333333,0,1005.36)" id="g10">
    <g transform="scale(0.1)" id="g12">
      <path
         id="path14"
         fill="#BB4B36"
         fillOpacity="0.07"
         fillRule="evenodd"
         stroke="none"
         d="M 11310.2,0 H 0 V 7540.16 H 11310.2 V 0" />
      <path
         id="path16"
         fill="#FDF5EA"
         fillOpacity="1"
         fillRule="evenodd"
         stroke="none"
         d="m 9732.35,10.0586 c 37.17,-1.39844 74.35,-2.79688 111.51,-4.20704 0,-0.69922 0,-1.40234 0,-2.10156 -46.28,0.69922 -92.57,1.40234 -138.85,2.10156 9.11,1.41016 18.23,2.8086 27.34,4.20704 z M 2253.21,140.5 c 82.04,-31.551 164.11,-63.1211 246.15,-94.6797 42.07,-14.0195 84.16,-28.039 126.23,-42.0703 -31.92,-0.48828 -190.98,-7.37109 -204.07,4.19922 -35.99,29.62108 -62.5,65.94138 -103.09,92.57078 -19.04,12.5 -54.26,19.699 -65.22,39.98 z M 1672.55,3.75 c -105.18,0 -210.39,0 -315.57,0 -2.35,83.6914 7.38,154.52 56.8,191.449 C 1544.01,292.52 1674.95,141.07 1672.55,3.75 Z M 229.316,321.43 C 160.727,295.301 114.902,284.41 92.5703,214.129 58.6094,107.262 148.086,-14 258.773,5.85156 450.281,40.1992 436.641,321.91 229.316,321.43 Z m 8398.524,23.14 c 158.66,3.391 280.59,-23.929 382.9,-75.738 25.52,-12.922 79.23,-28.613 90.46,-54.703 C 8839.67,285.41 8573.16,181.699 8398.53,79.4922 8359.92,56.9023 8319.43,22.25 8280.71,3.75 c -110.79,0 -221.62,0 -332.41,0 0.7,2.10156 1.41,4.19922 2.11,6.3086 32.26,28.75 64.52,57.5117 96.77,86.2617 62.66,48.2497 127.71,93.6407 197.76,134.6407 74.35,43.519 165.76,74.519 258.77,96.781 41.38,5.61 82.76,11.219 124.13,16.828 z M 4525.36,3.75 c -0.22,45.8984 -28.98,121.563 -61.01,136.75 20.58,-34.219 34.48,-83.0508 29.45,-136.75 -101.68,0 -203.38,0 -305.06,0 4.25,141.051 108.72,338.738 225.11,363.961 63.99,13.871 154.42,-34.852 189.35,-56.801 116.69,-73.308 137.6,-158.961 178.83,-307.16 -85.55,0 -171.13,0 -256.67,0 z m 6322.04,589.082 c 20.3,-2.992 108.6,-89.621 136.7,-107.301 58.5,-36.652 128,-66.48 199.9,-88.359 32.8,-10 77.5,-10.582 105.2,-27.352 0,-0.699 0,-1.41 0,-2.109 -18,-211.063 -243.2,-399.6094 -454.4,-250.352 -106.8,75.43 -141.9,249.614 -63.1,382.903 20.9,35.468 51.4,61.148 75.7,92.57 z M 0,702.219 c 50.4023,-17.207 97.1406,-55.188 149.375,-75.727 44.871,-12.633 89.766,-25.262 134.645,-37.871 -0.704,-1.41 -1.403,-2.812 -2.106,-4.211 C 244.75,578.102 207.574,571.781 170.41,565.469 115.785,555.801 48.1875,565.031 0,571.781 c 0,43.481 0,86.957 0,130.438 z m 6435.64,100.992 c 168.82,1.59 272.48,-41.211 401.83,-73.641 106.52,-26.699 216.47,-37.941 332.41,-56.8 117.69,-19.141 276.59,-11.348 374.49,16.832 42.07,15.418 84.16,30.859 126.23,46.277 0,-32.25 0,-64.52 0,-96.77 -13.64,-55.129 -12,-108.789 -27.36,-157.789 -57.31,-182.859 -246.9,-437.6286 -521.75,-353.449 -44.44,13.621 -85.11,37.02 -117.81,63.121 -38.64,30.86 -70.25,81.848 -84.16,136.75 -2.8,19.637 -5.6,39.278 -8.41,58.899 -0.7,0 -1.4,0 -2.11,0 -3.22,-146.172 -1.52,-239.621 63.12,-328.1918 16.83,-17.5273 33.66,-35.0703 50.5,-52.59764 0,-0.69922 0,-1.40234 0,-2.10156 -57.5,0 -115.02,0 -172.52,0 -12.66,132.059 -151.17,367.199 -237.74,422.871 23.15,-39.262 46.29,-78.551 69.43,-117.82 42.04,-95.051 77.01,-194.141 103.09,-305.051 -28.75,0 -57.51,0 -86.26,0 -36.81,163.969 -149.31,270.48 -309.26,313.469 -45.37,12.203 -178.49,19.051 -212.49,-8.418 0,-0.692 0,-1.391 0,-2.102 166.2,0.352 327.04,-172.187 366.07,-302.949 -197.74,0 -395.55,0 -593.28,0 0,0.69922 0,1.40234 0,2.10156 86.98,244.37844 88.2,564.39044 271.39,711.09744 35.36,28.321 77.88,54.84 126.24,69.43 29.44,5.613 58.9,11.223 88.35,16.832 z M 1430.61,832.66 c 23.9,-7.949 43.66,-65.359 56.8,-86.258 36.54,-58.082 82.21,-114.691 128.34,-164.089 C 1721.52,469.012 1850.27,372.762 1986.03,289.871 2128,203.18 2254.49,168.551 2322.64,3.75 c -213.87,0 -427.81,0 -641.67,0 50.76,155.449 -23.04,288.469 -157.79,311.371 -127.49,21.66 -206,-80.109 -223.01,-172.519 -10.53,-57.2309 12.42,-103.9301 27.35,-138.852 -138.84,0 -277.72,0 -416.559,0 15.504,57.9688 83.852,143.031 117.819,191.449 104.17,148.5 217.46,282.442 311.37,439.703 32.94,55.157 81.03,124.348 90.46,197.758 z m 4681.04,16.84 c 51.89,-1.41 103.8,-2.82 155.68,-4.211 -3.66,-7.547 -75.93,-39.258 -88.36,-48.387 C 6131.03,761.621 6093.93,704.148 6063.26,651.73 5957.99,471.742 5952.9,217.109 5878.13,3.75 c -158.48,0 -317,0 -475.47,0 0,0.69922 0,1.40234 0,2.10156 C 5529.62,280.02 5517.56,591.5 5768.72,748.512 c 58.36,36.468 128.99,63.519 204.07,82.047 46.29,6.312 92.58,12.621 138.86,18.941 z M 11272.4,3.75 c -114.3,0 -228.7,0 -343,0 -0.7,7.0195 -1.4,14.0313 -2.1,21.0391 -1.4,0 -2.8,0 -4.2,0 0,-7.0078 0,-14.0196 0,-21.0391 -159.1,0 -318.4,0 -477.5,0 -4.6,47.1992 -26.6,86.6992 -46.3,119.922 -88.3,148.75 -240.7,202.707 -458.67,216.699 0,0.699 0,1.391 0,2.09 0.71,1.41 1.41,2.82 2.11,4.211 72.46,0.23 138.66,35.66 193.56,58.91 174.9,74.129 347.1,183.199 458.6,321.887 16.3,20.203 125.8,185.019 130.5,187.242 -2.4,-77.531 30.7,-171.082 65.2,-229.32 16.8,-25.942 33.6,-51.891 50.5,-77.84 -153.2,-111.321 -187,-386.692 -16.9,-507.031 39.7,-28.0591 83.7,-38.77 143.1,-48.3794 185.2,-29.9804 295.4,123.2184 332.4,254.5584 1.4,-0.699 2.8,-1.398 4.2,-2.109 -10.5,-100.258 -21,-200.57 -31.5,-300.84 z M 2371.03,1259.74 c -62.13,-26.39 -108.06,-44.96 -130.44,-109.39 -42.12,-121.23 59.13,-243.998 185.14,-218.799 192.03,38.39 181.82,332.659 -54.7,328.189 z M 0,1367.03 c 32.0703,-9.55 123.883,-49.65 143.063,-71.53 0,-0.69 0,-1.39 0,-2.1 -0.704,0 -1.403,0 -2.106,0 C 83.4727,1319.82 31.9219,1277.19 0,1257.64 c 0,36.46 0,72.93 0,109.39 z m 7102.56,130.44 c 215.3,5.34 212.49,-251.09 44.18,-284.01 -105.31,-20.6 -196.53,71.61 -164.1,178.82 19.25,63.65 61,80.03 119.92,105.19 z m 4.21,37.88 c -18.23,-4.21 -36.47,-8.42 -54.7,-12.63 -50.6,-20.92 -92.26,-69.99 -107.29,-126.23 -31.63,-118.16 75.01,-245.67 195.65,-225.11 226.29,38.56 211.94,367.82 -33.66,363.97 z M 0,1747.84 c 34.3594,-27.36 68.7305,-54.71 103.086,-82.06 107.269,-82.4 224.453,-173.9 273.5,-313.47 48.547,-138.14 -42.453,-324.03 -201.969,-286.12 -47.847,11.37 -128.4959,74.81 -82.0467,140.95 27.8907,39.72 101.4607,37.94 117.8167,-10.52 0.699,-14.02 1.398,-28.04 2.097,-42.08 1.407,0.71 2.809,1.41 4.211,2.11 49.493,173.17 -96.367,233.13 -216.695,281.92 0,103.07 0,206.18 0,309.27 z m 10887.4,124.12 c 12.8,-6.47 75.4,-174.55 90.4,-199.87 75.5,-127.37 179.5,-256.64 332.4,-305.06 0,-38.56 0,-77.13 0,-115.71 -14.5,-27.76 -47.2,-51.71 -35.7,-107.29 5.7,-27.79 25.4,-43.25 35.7,-63.12 -0.7,-100.269 -1.4,-200.57 -2.1,-300.851 -2.1,2.113 -4.2,4.211 -6.3,6.32 -125.9,56.293 -264.5,265.871 -317.7,401.831 -13.3,44.18 -26.6,88.37 -39.9,132.55 -6.3,26.64 -12.7,53.3 -19,79.94 2,-233.99 99.7,-413.938 206.2,-547.001 49.4,-61.719 124.8,-94.937 178.8,-151.48 0,-43.481 0,-86.957 0,-130.438 -0.7,0 -1.4,0 -2.1,0 -182.4,60.028 -313.3,136.981 -380.8,309.27 -59.6,152.289 -37.6,392.839 -10.5,570.139 22,143.62 -8.1,304.8 -29.4,420.77 z m -8916.1,67.32 c 2.1,0 4.2,0 6.31,0 -2.11,-3.5 -4.21,-7.01 -6.31,-10.52 -66.71,-28.01 -130.21,-163.3 -168.31,-227.21 -61.45,2.32 -196.37,96.32 -239.84,128.33 -19.75,14.55 -58.69,34.89 -67.32,58.91 27.62,-7.8 54.01,-23.11 86.25,-29.45 118.87,-23.38 335.71,25.58 389.22,79.94 z m 525.96,79.94 c 429.79,7.41 725.17,-234.9 852.05,-530.16 22.76,-52.96 37.53,-113.12 50.49,-174.62 13.91,-65.94 20.33,-160.24 8.42,-231.42 -12.29,-73.46 -14.29,-133.809 -33.66,-195.661 -67.89,-216.738 -220.94,-365.23 -420.77,-450.218 -68.31,-29.051 -145.3,-46.352 -225.11,-63.11 -147.53,-31 -342.88,-14.109 -473.36,18.93 -356.21,90.219 -624.25,275.738 -751.08,593.277 -33.58,84.092 -39.37,176.702 -56.8,281.922 -17.15,103.49 -0.01,208.48 -18.93,302.95 -18.85,94.07 -41.43,180.25 -75.74,258.77 -18.23,34.36 -36.47,68.73 -54.7,103.09 18.02,-6.31 30.86,-30.27 42.08,-44.18 47.68,-44.18 95.37,-88.37 143.06,-132.55 52.86,-39.46 114.95,-76.04 178.82,-103.08 35.76,-13.32 71.53,-26.65 107.3,-39.97 -11.22,-37.87 -22.45,-75.74 -33.66,-113.62 -29.03,-115.46 -36.57,-283.61 -6.31,-403.93 61.46,-244.402 212.99,-421.101 433.38,-507.019 54.94,-21.422 109.13,-24.859 176.73,-35.762 68.01,-10.98 154.65,-4.296 214.59,10.512 59.72,14.77 117.47,34.129 164.1,63.121 103.21,64.149 181.69,160.457 220.9,288.219 74.1,241.469 -44.1,455.659 -191.45,544.889 -159.04,96.33 -417.89,35.61 -477.57,-109.39 48.68,28.88 81.91,67.69 147.27,84.15 264.23,66.52 493.73,-225.56 427.08,-485.989 -38.53,-150.531 -141.01,-254.633 -275.6,-309.262 -68.39,-27.757 -133.51,-24.296 -223.01,-37.871 -55.53,-8.406 -126.4,7.571 -170.41,21.043 -210.49,64.379 -351.79,205.578 -408.14,422.869 -41.55,160.19 -8.55,357.29 39.97,481.78 9.41,24.14 12.73,54.68 29.45,71.53 38.57,-4.21 77.14,-8.42 115.71,-12.63 92.14,-14.29 191,10.77 258.77,29.46 28.16,7.76 60.86,10.06 82.05,25.24 -138.35,-11.08 -312.52,-26.61 -418.66,33.66 0,0.71 0,1.41 0,2.11 23.84,30.85 47.69,61.72 71.53,92.57 70.87,88.32 182.7,155.34 296.64,199.86 51.36,20.07 109.62,31 168.31,42.08 28.75,2.81 57.51,5.61 86.26,8.41 z M 37.8711,3.75 c 1.3633,110 -1.8789,289.648 -35.76563,366.07 0.69531,0.7 1.40234,1.399 2.10156,2.102 103.42997,-2.43 201.31297,9.797 284.01997,35.769 383.328,120.34 804.723,523.34 595.386,1054.019 -57.8,146.53 -140.769,286.29 -241.941,391.31 -45.578,41.38 -91.176,82.76 -136.75,124.13 -16.317,12.52 -51.742,25.79 -58.906,46.28 0.699,0 1.402,0 2.097,0 76.961,-30.28 176.614,-24.3 271.399,-39.97 45.582,0 91.172,0 136.754,0 52.675,-11.84 156.024,-97.99 187.244,-136.75 68.85,-85.52 129.03,-176.27 166.2,-294.54 C 1358.92,1077.32 1096.74,603.152 923.586,308.801 887.125,242.191 850.648,175.559 814.184,108.941 796.152,78 767.777,41.1914 759.488,3.75 c -82.746,0 -165.511,0 -248.258,0 8.008,39.5898 35.911,79.4609 54.704,111.512 72.39,123.418 149.179,236.57 260.875,319.769 41.492,30.918 92.785,49.989 134.644,82.051 C 900.168,506.309 842.945,463.34 797.355,432.93 665.215,344.801 563.141,231.25 479.672,94.2109 462.848,64.0703 446.012,33.9023 429.184,3.75 c -130.422,0 -260.887,0 -391.3129,0 z M 7756.86,2031.85 c 213.83,3.8 350.52,-46.28 471.26,-132.54 19.02,-13.59 40.78,-23.5 54.69,-42.08 -1.37,-113.56 -0.98,-229.99 29.46,-317.68 -0.71,-1.4 -1.41,-2.81 -2.1,-4.2 -47.95,-0.26 -92.21,10.2 -132.55,18.93 -190.27,41.14 -328.32,99.68 -485.99,166.2 -94.05,39.69 -222.75,96.3 -370.27,73.64 -73.16,-11.25 -143.2,-19.88 -208.28,-39.98 -42.78,-16.13 -85.56,-32.26 -128.33,-48.38 0,0.7 0,1.4 0,2.1 40.66,25.24 81.34,50.49 122.02,75.74 124.72,82.9 262.16,157.88 420.77,206.17 51.18,11.22 102.38,22.44 153.57,33.66 25.25,2.81 50.5,5.62 75.75,8.42 z m 3117.84,128.33 c 15.8,-8.24 21.4,-28.17 31.6,-42.07 32.3,-36.47 64.5,-72.94 96.8,-109.41 65.6,-65.92 138.8,-129.87 212.5,-187.23 31.5,-24.54 63.1,-49.09 94.6,-73.63 0,-102.39 0,-204.79 0,-307.17 -63.1,17.08 -129,81.99 -166.2,128.34 -122.3,152.41 -237.7,350.44 -269.3,591.17 z M 0,2166.5 C 101.941,2128.27 193.695,2051.69 275.602,1989.77 479.262,1835.81 661.746,1637.92 748.965,1369.14 842.172,1081.9 719.887,816.531 513.336,727.469 458.086,703.652 375.191,670.379 286.121,685.391 214.434,697.469 152.262,705.23 94.6719,729.57 63.1211,745.699 31.5508,761.832 0,777.961 c 0,98.871 0,197.781 0,296.639 41.3516,-28.32 72.3711,-59.13 130.438,-73.63 230.625,-57.63 423.484,174.7 357.652,397.63 -58.363,197.64 -216.762,351.16 -361.86,464.94 -42.0698,32.96 -84.1597,65.93 -126.23,98.89 0,68.01 0,136.05 0,204.07 z m 4607.41,212.48 c -19.9,-11.12 -40.38,-19.57 -52.6,-37.86 -40.97,-61.35 18.73,-153.33 90.46,-136.75 105.7,24.42 95.62,179.34 -37.86,174.61 z m 3103.16,67.32 c 257.18,4.52 423.36,-56.01 578.55,-149.36 33.51,-20.16 77.17,-39.58 100.99,-69.44 -15.43,-30.85 -30.86,-61.71 -46.28,-92.56 -14.04,-41.37 -28.06,-82.76 -42.08,-124.13 -33.66,16.83 -67.33,33.67 -100.99,50.49 -70.15,29.03 -148.86,42.1 -233.52,56.81 -283.38,49.21 -580.85,-47.66 -748.97,-147.28 -51.19,-33.65 -102.39,-67.32 -153.58,-100.97 -14.73,-11.22 -29.46,-22.44 -44.18,-33.66 1.4,2.09 2.8,4.2 4.21,6.3 23.83,37.87 47.68,75.75 71.53,113.61 97.45,165.63 175.14,317.28 340.82,414.46 53.5,31.38 119.14,49.31 187.24,65.21 28.75,3.51 57.51,7.02 86.26,10.52 z m 3134.73,8.42 c 24.5,-20.33 49.1,-40.67 73.6,-61.01 58.9,-38.57 117.8,-77.14 176.7,-115.71 71.6,-37.87 143.1,-75.74 214.6,-113.61 -0.7,-66.61 -1.4,-133.24 -2.1,-199.86 -42,23.09 -75,61.3 -111.5,90.46 -96.5,77.07 -185.2,169.26 -258.7,269.29 -23.5,31.93 -84.1,91.5 -92.6,130.44 z m -7033.15,376.59 c -23.83,-6.32 -47.68,-12.62 -71.52,-18.93 -67.94,-29.17 -124.71,-89.82 -147.28,-164.1 -49.95,-164.48 85.97,-358.43 252.47,-332.42 110.79,17.32 186.75,65.2 225.11,153.59 86.2,198.68 -58.22,364.08 -258.78,361.86 z m 1521.08,201.97 c 12.92,-10.07 4.38,-121.11 0,-140.96 -28.05,-127.31 -104.2,-222.06 -199.87,-281.92 -42.83,-26.79 -95.12,-49.25 -149.37,-63.11 -396.64,-101.35 -603.19,158.09 -721.61,401.83 2.1,0.71 4.21,1.4 6.31,2.1 98.08,-243.27 504.08,-406.12 831.02,-265.07 104.37,45.03 190.85,126.89 223,244.04 9.16,33.34 7.44,80.31 10.52,103.09 z m 4083.55,273.49 c 764.22,11.87 1126.82,-641.09 1300.22,-1228.63 27.9,-94.56 40.6,-195.02 58.9,-298.75 20.3,-115.82 16.5,-274.94 -4.2,-385 -78.9,-418.12 -245.6,-667.32 -599.6,-807.87 -69.4,-27.528 -146.1,-46.918 -225.15,-63.122 -190.2,-38.996 -416.09,-6.218 -565.93,46.282 -364.38,127.679 -613.84,362.652 -778.42,690.06 -134.29,267.16 -156.49,669.18 25.24,904.65 58.5,75.8 143.67,136.99 239.84,174.62 346,135.39 779.25,-99.47 927.79,-288.23 69.75,-88.64 148.77,-228.99 109.4,-397.62 -14.05,-60.22 -36.07,-117.9 -67.32,-161.99 -79.88,-112.72 -275.47,-220.87 -427.08,-103.09 -159.38,123.8 2.14,438.4 193.55,342.92 -2.1,3.51 -4.21,7.01 -6.31,10.52 -55.47,20.07 -130.84,56.22 -206.18,25.24 -172.51,-70.93 -206.79,-315.23 -54.69,-435.49 264.13,-208.82 602.91,11.4 677.46,254.56 45.7,149.35 -11.3,311.45 -69.46,403.94 -148.04,235.3 -453.49,410.79 -748.96,500.71 -95.49,29.06 -244.57,60.15 -372.38,35.77 -133.07,-25.38 -219.04,-73.83 -305.05,-143.06 -26.65,-30.85 -53.3,-61.71 -79.95,-92.57 -1.41,0 -2.81,0 -4.21,0 -145.36,205.7 -633.16,453.55 -984.59,300.85 -102.38,-44.47 -190.93,-122.27 -252.46,-208.28 -20.71,-28.94 -41.8,-90.88 -65.23,-113.61 -1.39,0.71 -2.8,1.41 -4.21,2.1 0,0.71 0,1.41 0,2.11 21.4,40.93 -2.24,129.45 -10.51,164.1 -27.14,113.68 -66.37,198.45 -126.24,277.71 -21.85,28.93 -91.26,82.11 -100.98,111.5 38.81,-10.33 81.82,-35.38 124.13,-48.39 74.19,-22.81 154.3,-29.78 237.73,-44.18 116.42,-20.09 296.3,-5.73 401.84,12.62 187.26,32.56 370.21,34.56 551.2,67.33 111.49,10.51 223.02,21.04 334.51,31.56 37.16,1.4 74.34,2.8 111.51,4.2 76.42,2.11 152.88,4.21 229.31,6.32 58.91,-1.41 117.83,-2.81 176.72,-4.21 28.75,-0.71 57.51,-1.41 86.26,-2.11 76.44,-8.41 152.89,-16.83 229.32,-25.25 259.54,-52.16 460.57,-126.75 635.4,-258.77 206,-155.6 350.6,-379.44 416.5,-675.33 112.6,-505.39 -130.6,-882.79 -460.72,-1026.671 -122.2,-53.27 -309.39,-95.758 -483.89,-58.899 -279.24,58.961 -484.26,221.43 -563.83,479.66 -102.54,332.85 84.8,571.19 313.48,660.61 70.56,27.6 181.65,46.1 275.61,25.24 74.33,-16.49 143.95,-43.96 195.65,-84.15 27.84,-21.64 45.43,-72.67 75.73,-88.36 -1.39,2.1 -2.8,4.21 -4.2,6.31 -54.56,205.77 -417.83,363.64 -685.86,258.78 -209.41,-81.93 -288.4,-221.9 -334.5,-469.16 -23.68,-127 23.02,-291.83 56.8,-376.59 97,-243.351 289.44,-408.359 547,-490.191 57.55,-18.289 114.17,-22.289 180.93,-33.66 75.39,-12.848 182.54,-10.758 254.57,4.203 67.6,14.039 131.44,28.25 189.34,52.597 266.39,112.02 441.39,321.591 530.19,612.221 20.9,68.53 20.8,137.09 33.6,216.7 15.3,94.13 5.8,218.5 -12.6,302.94 -21.3,98.11 -44.2,191.67 -79.9,275.61 -166.8,391.22 -482.44,635.14 -925.72,751.07 -255.87,66.92 -594.79,67.71 -896.24,46.28 -85.55,-11.22 -171.11,-22.44 -256.66,-33.66 -21.09,-4.32 -77.26,-16.58 -86.26,-10.52 61.71,30.16 123.43,60.32 185.14,90.47 189.84,96.7 388.94,183.7 610.12,250.35 74.19,22.37 152.44,31.06 233.52,46.29 33.65,2.81 67.33,5.61 100.98,8.41 z m 1891.32,406.05 c 0,-71.53 0,-143.07 0,-214.59 -3.3,69.56 -3.3,144.88 0,214.59 z m -5713.99,50.49 c 42.07,-44.18 84.15,-88.36 126.23,-132.54 98.1,-101.87 204.64,-206.32 315.57,-294.54 108.69,-86.95 217.41,-173.92 326.1,-260.87 184.39,-138.64 367.82,-259.46 475.46,-475.47 69.01,-138.49 97.43,-370.03 42.08,-547.01 -27.39,-87.57 -65.25,-168.12 -111.5,-237.73 -72.81,-109.58 -171.01,-204.1 -277.71,-279.8 -147.55,-104.69 -320.78,-180.7 -532.27,-220.91 -284,-54 -444.59,107.41 -490.19,317.68 -7.86,36.22 -18.52,92.67 -10.52,140.96 9.91,59.81 15.13,115.89 31.56,168.3 62.73,200.15 184.59,388.03 382.9,452.33 219.83,71.28 487.34,-86.42 420.76,-321.89 -31.84,-112.62 -189.26,-247.02 -321.89,-147.27 -108.27,81.44 -72.89,303.87 90.47,300.85 0,0.71 0,1.41 0,2.1 -24.07,21.35 -92.82,17.15 -124.13,6.32 -70.4,-24.35 -144.82,-92.86 -124.12,-204.07 22.52,-121.01 105.16,-174.47 229.32,-195.66 231.56,-39.51 408.61,249.17 345.03,481.77 -36.4,133.15 -117.88,225.96 -239.85,273.51 -177.17,69.06 -365.53,-26.43 -467.05,-100.99 -193.73,-142.29 -293.39,-337.19 -345.02,-624.84 -20.63,-114.92 -4.99,-255.24 29.45,-342.92 41.61,-105.93 110.09,-196.47 195.65,-258.77 155.5,-113.25 418.98,-128.43 639.57,-61.02 322.7,98.62 504.61,311.63 809.98,427.08 365.57,138.21 720.51,-27.76 1011.94,-130.44 70.82,-20.33 141.67,-40.67 212.49,-61.01 35.06,-7.71 70.14,-15.42 105.2,-23.14 23.04,-116.99 127.67,-278.53 189.34,-366.07 203.52,-288.918 441.13,-552.07 816.29,-669.008 160.69,-50.101 357.54,-39.07 534.38,-77.851 204.77,-44.922 394.67,-137.051 483.87,-296.641 -108,0 -216,0 -324,0 -71.24,38.3516 -162.78,103.289 -290.31,82.0391 C 9695.5,76.8516 9647.62,68.7695 9604.02,50.0313 9577.39,38.5898 9550.4,13.7891 9526.18,3.75 c -372.34,0 -744.79,0 -1117.14,0 40.15,34.8711 109.85,50.8086 162,71.5313 C 8705.05,128.5 8913.08,192.379 9103.31,148.91 9191.77,128.699 9249.3,86.9023 9315.8,50.0313 9306.04,104.422 9212.13,213.738 9179.04,256.211 9035.85,440.02 8731.15,685.762 8373.28,586.52 8325.37,573.23 8270.99,555.512 8230.21,531.809 8085.73,447.82 7975.5,343.281 7880.98,209.93 7836.81,141.199 7792.62,72.4609 7748.44,3.75 c -55.4,0 -110.81,0 -166.2,0 0,0.69922 0,1.40234 0,2.10156 23.83,21.03904 47.68,42.07814 71.53,63.11724 100.65,125.4532 138.7,227.8012 172.51,424.9722 9.08,52.95 15.95,126.098 6.31,185.149 -8.41,63.801 -16.83,127.629 -25.25,191.441 25.77,19.371 38.2,51.059 54.7,79.938 96.98,169.731 29.09,422.781 -149.36,456.541 -161.29,30.52 -193.92,-199.76 -79.96,-260.87 22.98,-12.33 72.12,-32.56 100.99,-12.63 16.78,94.34 -15.76,133.77 -86.26,159.89 0,2.8 0,5.62 0,8.42 2.11,1.4 4.21,2.8 6.32,4.21 10.27,8.99 31.41,9.99 48.38,6.31 68.86,-14.94 98.84,-84.91 77.84,-168.31 -42.92,-170.53 -162.28,-273.608 -338.71,-311.37 -46.63,-9.98 -188.74,-12.262 -223.01,12.629 0.7,1.391 1.4,2.801 2.1,4.211 179.95,5.371 292.28,113.723 326.09,267.18 25.42,115.32 -25.98,317.9 -94.66,351.34 18.94,-29.9 34.73,-65.33 44.18,-105.19 57.87,-244.18 -136.7,-364.228 -311.37,-408.15 -73.37,-18.442 -149.16,-11.918 -233.53,-25.239 -56.69,-8.949 -141.68,-6.671 -195.65,2.11 -110.65,17.98 -221.4,7.519 -326.1,25.238 -70.82,5.613 -141.66,11.223 -212.48,16.832 -90.46,7.008 -180.94,14.02 -271.4,21.039 -79.24,7.01 -158.5,14.03 -237.74,21.04 -233.54,40.84 -388.38,81.38 -504.92,237.73 -39.08,52.44 -71.29,115.68 -92.57,185.14 -97.91,319.67 87.03,621.45 214.59,795.25 157.93,215.16 299.96,431.42 387.11,719.51 38.4,126.96 60.12,320.73 23.15,469.15 -19.29,77.4 -44.01,148.97 -73.64,216.7 -22.44,41.37 -44.88,82.76 -67.32,124.13 z m -1798.78,18.93 c -52.43,-23.94 -90.13,-40.63 -107.3,-98.88 -27.5,-93.26 52.85,-189.05 153.58,-168.31 159.3,32.82 150.82,271.73 -46.28,267.19 z m -715.31,4.21 c -16.74,-7.96 -34.47,-12.79 -44.18,-27.34 -29.38,-44.05 10.74,-110.46 65.22,-98.89 73.68,15.65 65.4,128.2 -21.04,126.23 z m 7626.38,467.05 c -27.6,-11.3 -54.4,-11.6 -77.8,-25.24 -84.9,-49.47 -130.1,-128.86 -185.1,-208.28 -21.8,-30.16 -43.5,-60.32 -65.3,-90.47 99.6,69.49 159.4,191.54 275.6,241.94 126.5,54.85 260,-13.55 296.7,-109.4 2.1,0 4.2,0 6.3,0 -49.4,107.74 -90.3,193.25 -250.4,191.45 z m -7605.34,170.41 c -46.01,-20.55 -81.9,-35.61 -96.78,-86.25 -25.21,-85.84 45.15,-177.2 138.85,-157.79 146.49,30.34 142.41,248.8 -42.07,244.04 z m 1365.39,237.74 c -19.63,-3.51 -39.27,-7.02 -58.91,-10.52 -33.75,-10.36 -68.14,-27.38 -94.67,-46.29 -105.86,-75.43 -176.7,-245.49 -107.3,-406.04 13.02,-30.11 25.77,-63.52 48.39,-84.15 0.7,0 1.41,0 2.1,0 0,0.7 0,1.4 0,2.1 -125.4,243.9 110.8,542.23 385.01,431.29 182.98,-74.03 214.09,-246.99 309.26,-406.04 47.61,-79.56 114.26,-139.27 168.31,-210.38 -1.4,-1.41 -2.81,-2.81 -4.21,-4.21 -66.4,33.32 -144.24,53.26 -229.32,69.42 -144.73,27.5 -289.34,-17.86 -382.89,-58.9 -170.63,-74.86 -291.97,-209.53 -349.24,-397.62 -49.19,-161.56 -6.77,-360.1 29.45,-502.83 72.4,-285.27 114.29,-469.36 353.44,-591.18 72.12,-36.73 187.96,-74.16 307.17,-52.59 48.91,8.85 94.33,20.57 136.75,35.77 1.4,-1.41 2.8,-2.81 4.2,-4.21 -0.7,-1.41 -1.4,-2.81 -2.1,-4.21 -130.59,-34.84 -180.34,-157.34 -281.91,-220.9 -59.89,-37.48 -168.4,-67.54 -267.19,-48.39 -33.63,6.51 -68.67,20.57 -98.88,25.25 0,-0.71 0,-1.41 0,-2.11 2.1,-2.81 4.21,-5.61 6.31,-8.41 62.2,-28.69 101.64,-82.15 176.72,-105.2 226.67,-69.58 376.36,119.52 452.33,246.15 35.74,59.58 64.54,136.71 117.81,178.83 116.68,92.25 327.59,266.17 286.12,507.02 -28.57,166 -105.44,286.48 -241.94,342.93 -188.88,78.11 -350.47,-44.25 -387.1,-191.45 -11.84,-47.55 1.47,-101.9 6.31,-145.17 2.1,0 4.21,0 6.31,0 -2.39,121.93 119.07,211.63 248.25,170.41 143.85,-45.9 252.85,-268.22 84.15,-370.27 -122.98,-74.4 -334.88,-33.74 -452.32,14.73 -241.02,99.48 -525.47,365.15 -410.25,732.14 19.2,61.13 50.04,118.57 84.16,166.2 149.92,209.3 491.47,299.29 795.25,170.41 207.54,-88.06 389.55,-231.14 473.36,-443.91 23.74,-60.25 55.77,-150.44 39.97,-244.04 -10.47,-62.07 -28.96,-116.53 -39.97,-170.42 0.7,0 1.4,0 2.1,0 0,1.4 0,2.81 0,4.21 87.64,113.92 37.79,393.51 -16.83,500.71 -60.25,118.26 -153.48,218.91 -256.67,294.54 -52.28,38.33 -121.96,65.17 -161.99,115.71 -203.77,257.33 -217.75,723.43 -679.54,721.62 z m -3340.9,151.47 c 700.94,10.26 1101.53,-391.07 1300.18,-885.71 143.78,-358.02 123.38,-794.86 -61.01,-1089.79 -226.73,-362.64 -622.51,-563 -1102.42,-673.23 -179.15,-41.14 -431.98,-67.99 -637.46,-29.45 -154.649,29 -298.043,60.02 -429.18,111.5 -65.215,29.45 -130.4452,58.92 -195.66,88.36 0,237.71 0,475.5 0,713.2 1.40234,-0.7 2.80859,-1.39 4.20703,-2.1 9.61327,-91.18 83.50777,-206.16 128.33597,-269.29 172.805,-243.38 522.559,-477.66 957.247,-347.13 347.98,104.49 608.75,339.95 692.16,708.99 76.64,339.09 -133.14,632.06 -347.13,725.82 -71.55,31.35 -179.01,71.76 -292.44,50.49 -184.442,-34.58 -312.849,-125.54 -374.482,-281.91 -67.757,-171.91 8.586,-314.99 88.368,-414.46 12.5,-15.58 22.8,-33.36 42.074,-42.07 -1.402,2.1 -2.809,4.21 -4.207,6.31 -16.375,36.03 -31.668,65.5 -39.973,115.71 -6.062,36.64 7.836,79.9 16.832,105.19 43.555,122.57 168.968,253.77 351.338,197.76 116.22,-35.69 193.6,-129.61 229.32,-246.15 37.51,-122.4 5.15,-273.4 -39.98,-361.86 C 1301.6,2777.54 1011.11,2589.37 660.605,2667.21 266.953,2754.63 0.0625,3114.5 0,3599.21 c -0.015625,109.58 3.78516,199.78 25.2422,284.02 27.4414,107.69 62.9375,211.96 113.6098,298.74 150.363,257.51 350.937,444.46 643.777,559.63 69.117,27.18 146.418,43.02 225.111,58.9 39.27,4.21 78.54,8.41 117.81,12.62 z m 6721.76,126.23 c -70.58,-29.98 -118.35,-49.72 -140.95,-126.23 -33.45,-113.22 72.26,-233.14 187.24,-212.48 204.99,36.82 195.08,343.09 -46.29,338.71 z m -4967.15,151.48 c 63.72,0.64 160.95,-15.55 183.03,-50.49 6.13,-9.7 -5.65,-143.93 0,-174.62 12.35,-67.08 26.65,-129.38 50.49,-185.14 16.13,-30.85 32.26,-61.71 48.39,-92.57 -59.02,-40.85 -107.46,-68.4 -197.76,-82.04 -214.29,-32.38 -407.53,250.14 -292.43,446.01 31.92,54.33 81.19,100.08 143.06,124.12 21.73,4.91 43.48,9.82 65.22,14.73 z m 8331.24,75.74 c 27.2,-5.97 66.8,-11.29 98.8,-4.21 -0.7,-9.11 -1.4,-18.23 -2.1,-27.35 -26,7.83 -83.7,10.02 -96.7,31.56 z m -109.4,159.89 c 23.6,-13.22 49.5,-70.19 75.7,-90.47 17,-13.17 46.1,-15.29 63.1,-29.45 0,-0.7 0,-1.4 0,-2.1 -4.2,0 -8.4,0 -12.6,0 -68.5,20.12 -116.2,45.04 -126.2,122.02 z m -7382.42,105.19 c 297.79,3.2 448.63,-193.14 492.3,-441.8 -2.1,0 -4.2,0 -6.31,0 -38.84,134.73 -187.42,266 -332.4,296.64 -78.1,16.5 -162.52,-4.01 -212.49,-29.46 -190.74,-97.13 -222.47,-327.88 -35.77,-454.42 -11.21,14.72 -22.44,29.45 -33.66,44.18 -20.94,30.36 -29.59,68.35 -35.76,113.6 -7.28,53.37 19.97,97.78 39.97,126.23 108.33,154.13 339.85,151.47 485.99,35.77 83.31,-65.96 125.87,-210.39 75.74,-342.93 -54.48,-144 -162.04,-264.53 -302.96,-321.88 -305.88,-124.5 -526.76,102.29 -610.11,309.26 -33.49,83.15 -47.51,211.09 -16.83,309.26 48.26,154.41 159.66,258.46 305.05,315.58 42.78,11.22 85.57,22.44 128.34,33.66 19.63,2.11 39.27,4.21 58.9,6.31 z m 31.56,176.72 c -21.74,-2.1 -43.48,-4.2 -65.22,-6.31 -48.38,-11.91 -96.77,-23.84 -145.16,-35.76 -234.42,-91.08 -412.29,-238.45 -469.15,-507.03 -1.41,-0.7 -2.81,-1.4 -4.21,-2.1 -191.68,143.78 -501.89,-26.66 -450.23,-286.12 47.77,-239.88 345.18,-395.41 553.31,-199.87 2.11,-0.7 4.21,-1.4 6.32,-2.1 121.47,-194.04 406.87,-386 719.51,-252.46 168.22,71.85 279.66,205.85 351.34,374.48 184.47,433.96 -27.81,919.49 -496.51,917.27 z m 7559.06,-353.44 c -128.9,-4.12 -230.3,126.28 -174.6,260.87 27.8,67.03 92.1,114.03 174.6,126.23 0,-129.01 0,-258.08 0,-387.1 z m -5335.3,534.38 c 1.41,-1.41 2.81,-2.81 4.21,-4.21 -52.86,-139.32 -20.26,-405.03 25.25,-519.65 102.18,-257.41 324.06,-414.46 599.59,-498.61 69.54,-21.24 138.64,-24.6 218.79,-37.87 111.56,-18.45 253.13,-5.29 349.24,18.93 255.48,64.39 454.04,196.01 586.98,382.9 31.8,44.72 61.66,97 84.15,149.37 10.52,29.46 21.04,58.92 31.56,88.37 267.56,-83.42 491.54,-448.69 376.59,-826.81 -31.1,-102.29 -78.38,-188.06 -136.76,-262.98 -184.8,-237.21 -651.7,-406.04 -1087.68,-309.26 -316.05,70.15 -547.44,204.02 -767.9,366.06 -63.81,46.28 -127.64,92.58 -191.45,138.86 0,0.7 0,1.4 0,2.1 36.06,-8.4 72.17,-31.02 113.6,-39.97 241.41,-52.15 346.55,134.95 378.7,311.36 -2.81,-2.1 -5.61,-4.2 -8.41,-6.3 -7.26,-35.6 -33.73,-68.85 -52.6,-94.68 -93.86,-128.49 -236.5,-143.72 -385,-54.7 -85.28,51.12 -148.25,122.8 -223.01,183.04 -131,105.54 -242.74,233.16 -374.49,338.71 -62.44,50.03 -119.69,105.47 -185.13,153.58 -17.7,13.01 -32.3,31.92 -54.7,39.98 0.7,2.8 1.4,5.61 2.1,8.41 80.8,0.77 161.86,32.26 225.11,56.8 167.09,64.85 304.06,150.96 399.73,286.13 28.7,40.54 46.07,85.34 71.53,130.44 z m 5333.2,21.04 c 0.7,-22.45 1.4,-44.89 2.1,-67.33 -112.5,-28.35 -272.5,-185.81 -212.5,-347.13 -2.1,0 -4.2,0 -6.3,0 -46.2,152.13 34.4,295.97 122.1,361.86 31.5,17.53 63.1,35.06 94.6,52.6 z m -8705.65,199.86 c -70.89,-28.76 -122.23,-49.27 -143.06,-126.23 -29.74,-109.86 67.01,-229.51 178.82,-210.39 212.04,36.27 201.03,340.82 -35.76,336.62 z m 681.64,18.93 c 265.99,5.07 288.79,-353.69 48.39,-395.52 -131.04,-22.8 -258.26,116.88 -220.9,250.36 16.89,60.35 62.1,110.68 117.81,132.54 18.23,4.21 36.47,8.42 54.7,12.62 z m -12.62,18.94 c -83.5,-35.83 -139.52,-54.01 -172.51,-138.86 -58.93,-151.49 84.48,-321.49 244.04,-290.32 115.08,22.47 223.01,149.19 159.89,296.64 -36.64,85.58 -105.55,134.28 -231.42,132.54 z M 0,5135.01 c 0,9.12 0,18.24 0,27.35 136.914,22.25 211.344,213.84 71.5273,288.23 -0.6953,-0.7 -1.3984,-1.41 -2.0976,-2.1 C 128.84,5360.59 79.2109,5284.88 0,5254.93 c 0,129.02 0,258.09 0,387.1 195.035,4.04 333.848,-65.08 378.691,-214.58 7.176,-23.95 -1.539,-56.27 2.106,-73.64 1.398,0.7 2.801,1.4 4.207,2.11 15.316,48.87 48.25,101.81 33.656,174.61 -30.008,149.76 -222.258,275.9 -418.66,212.49 0.703125,23.14 1.40234,46.29 2.10547,69.43 64.65233,8.57 139.67153,34.51 218.79653,16.83 170.836,-38.17 334.348,-220.02 246.149,-443.91 -24.602,-62.46 -66.957,-127.01 -115.707,-166.21 -15.43,-12.62 -30.86,-25.24 -46.285,-37.86 134.418,64.36 301.855,253.1 233.527,475.46 -20.102,65.4 -57.086,116.09 -96.777,162 -57.926,67 -187.536,125.62 -321.891,98.88 C 76.7969,5909.06 38.3242,5890.53 0,5881.87 c 0,80.64 0,161.31 0,241.95 0.703125,0 1.40234,0 2.10547,0 C 149.504,6078.35 302.895,6061.25 446.016,6016.52 900.098,5874.6 1313.66,5717.17 1643.1,5454.79 c 151.2,-120.41 248.68,-284.25 349.23,-456.53 72.35,-123.95 117.95,-260.28 164.11,-412.35 7.71,-25.24 15.43,-50.5 23.14,-75.74 -2.1,0.7 -4.21,1.41 -6.31,2.1 -32.46,73.59 -176.13,209.79 -239.84,260.88 -56.2,45.06 -108.68,96.58 -168.31,138.86 -212.15,150.42 -550.36,292.2 -904.651,183.03 C 734.453,5056.21 619.332,4999.68 521.754,4930.94 354.566,4813.17 222.398,4656.89 115.715,4478.61 87.6602,4420.41 59.6055,4362.2 31.5586,4303.99 21.0391,4275.95 10.5195,4247.89 0,4219.84 c 0,298.02 0,596.12 0,894.13 0.703125,0 1.40234,0 2.10547,0 228.12853,-73.18 516.71853,44.95 650.08553,126.23 69.098,42.11 181.414,132.59 305.055,111.51 60.334,-10.29 107.724,-37.8 147.274,-69.43 14.02,-15.43 28.05,-30.86 42.07,-46.29 0,0.71 0,1.41 0,2.11 -57.4,132.62 -144.62,298.07 -361.86,244.05 -30.152,-11.93 -60.312,-23.85 -90.46,-35.77 C 611.977,5398.25 559.641,5321.19 485.984,5265.45 392.188,5194.47 277.875,5148.97 134.645,5126.6 86.6211,5119.09 40.2422,5132.39 0,5135.01 Z m 8076.64,1001.43 c 536.23,-72.42 869.74,-472.21 1001.43,-953.04 70.9,-258.91 74.16,-640.83 -2.11,-898.34 -124.36,-419.93 -381.52,-728.03 -715.31,-938.31 -158.16,-99.65 -336.08,-183.23 -532.27,-244.05 -199.84,-61.95 -488.87,-117.24 -742.65,-67.32 -204.84,40.29 -370.76,99.7 -530.17,180.93 -640.58,326.39 -1069.02,834.22 -1468.48,1401.16 -127.62,178.11 -255.28,356.26 -382.9,534.37 -39.97,51.89 -79.95,103.8 -119.92,155.69 -14.26,18.36 -39.42,31.64 -46.28,56.8 0.7,0 1.4,0 2.1,0 117.26,-60.71 254.15,-104.66 374.49,-157.79 240.72,-106.28 454.25,-260.49 652.19,-412.35 445.9,-342.11 767.85,-797.87 1441.13,-915.17 179.66,-31.3 396.24,-1.76 544.89,37.87 380.02,101.31 679.57,287.94 788.94,660.6 34.66,118.08 61.27,299.19 33.66,448.12 -15.09,81.39 -31.62,156.07 -58.91,225.11 -59.37,150.26 -156.73,284.98 -279.81,372.38 -45.87,32.58 -106.98,47.71 -153.57,82.05 25.93,37.87 51.89,75.74 77.84,113.61 54.7,91.05 90.69,197.48 115.71,317.68 z m 3233.56,-12.62 c 0,-81.35 0,-162.71 0,-244.05 -114.5,-36.53 -196.2,-139.5 -235.6,-252.46 -6.6,-19 -17.7,-124.35 -18.9,-126.23 -1.4,0.7 -2.8,1.4 -4.2,2.1 -20.5,75.15 -80.5,136.76 -124.2,191.45 -182.6,228.68 -542.5,341.67 -925.6,239.84 0,-0.7 0,-1.4 0,-2.1 460.4,70.86 765.3,-109.9 934.1,-397.63 31.2,-53.34 53.5,-118.33 71.5,-183.03 112.5,-404.31 -149.7,-690.29 -418.7,-795.26 -355.3,-138.67 -680.43,97.18 -782.6,334.52 -61.36,142.5 -64.19,323.44 12.61,454.42 57.06,97.31 139.52,173.1 262.99,204.08 259.6,65.12 555.7,-171.93 475.5,-433.39 -57.1,-186.16 -363.1,-266.37 -477.6,-77.84 -115.95,190.89 175.2,319.84 216.7,124.12 1.4,-0.7 2.8,-1.4 4.2,-2.1 1.4,0 2.8,0 4.2,0 130.7,156.99 -139.3,247.71 -241.9,117.82 -133.65,-169.18 -16.7,-375.31 155.6,-418.67 246.9,-62.12 453.6,161.17 391.4,401.83 -39.6,153.08 -149.8,259.13 -288.3,313.48 -110,43.17 -265,18.8 -351.31,-25.25 -256.62,-130.95 -388.85,-512.69 -206.17,-824.71 115.73,-197.67 401.38,-438.63 751.08,-361.86 60.9,13.38 118.2,29.76 170.4,52.6 228.7,100.03 393.5,301.51 446,578.56 12,63.35 5.2,144.45 2.1,210.38 26.7,-18.24 53.3,-36.47 80,-54.7 32.2,-11.92 64.5,-23.85 96.7,-35.77 0,-305.02 0,-610.14 0,-915.17 -31.4,-93.9 -47.2,-203 -67.3,-313.47 -2.8,-37.16 -5.6,-74.34 -8.4,-111.5 -2.1,-53.99 -4.2,-108.01 -6.3,-162 2.1,-44.17 4.2,-88.36 6.3,-132.54 23.5,-143.45 30.2,-291.66 75.7,-412.35 0,-243.32 0,-486.71 0,-730.03 -194.9,115.65 -375.2,254.57 -511.2,429.18 -89.5,114.92 -169.5,237.82 -254.6,357.65 -49.8,64.52 -99.5,129.05 -149.3,193.56 -18.5,23.81 -57.2,48.62 -65.3,79.94 18.3,-9.11 36.5,-18.23 54.8,-27.35 58.6,-23.21 153.5,-47.49 239.8,-33.66 114.1,18.3 274,70.22 395.5,33.66 104.8,-31.53 118.6,-82.63 178.8,-153.58 -31.1,118.45 -167.6,250.1 -340.8,223.01 -119.6,-18.72 -254.4,-59.94 -391.3,-31.56 -174.9,36.26 -275.2,133.86 -403.9,212.49 -38.6,20.33 -77.18,40.67 -115.75,61.01 -17.54,4.91 -35.07,9.82 -52.59,14.73 1.39,0.69 2.8,1.4 4.2,2.1 29.45,3.51 58.91,7.01 88.36,10.52 61.68,14.02 123.48,28.05 185.18,42.08 139.8,43.73 324.1,189.17 513.3,136.75 68.5,-18.99 93.9,-62.12 141,-98.89 -34.9,110.46 -169.7,183.67 -326.1,151.48 -201.3,-41.41 -344.7,-138.11 -551.25,-183.03 -171.61,-37.32 -354.8,5.63 -542.79,-10.52 1.41,2.1 2.81,4.21 4.21,6.31 226.58,53.39 502.24,180.67 618.53,345.03 82.1,116.07 74.4,275.63 -33.66,359.76 -33.57,26.12 -74.82,49.43 -119.92,63.11 -29.45,4.91 -58.92,9.82 -88.36,14.73 -61.49,9.44 -122.73,-14.76 -159.89,-33.66 -203.14,-103.36 -138.13,-314.85 -220.91,-525.97 -24.01,-61.24 -60.73,-112.49 -98.88,-159.88 -16.82,-15.43 -33.66,-30.86 -50.49,-46.29 0.7,0 1.4,0 2.1,0 116.24,48.52 195.43,169.6 231.43,298.74 34.47,123.72 28.26,266.78 96.78,353.45 72.18,91.32 236.45,52.91 296.64,-23.14 106.35,-134.39 62.65,-302.54 -52.6,-393.42 -159.69,-125.91 -378.35,-182.46 -584.87,-262.98 -127.39,-49.66 -250.76,-108.3 -370.28,-161.99 0,2.1 0,4.21 0,6.31 61.74,29.61 163.85,161.12 206.19,218.79 145.29,197.99 238.8,415.81 298.74,704.79 16.42,79.18 39.03,218.67 23.14,317.68 -7.01,69.42 -14.02,138.86 -21.04,208.28 -19.63,87.65 -39.27,175.33 -58.91,262.98 -23.96,126.8 11,269.83 46.29,359.76 158.19,403.25 564.71,540.65 1127.7,540.68 110.8,0.01 220.6,6.36 323.9,-10.51 94.7,-10.53 189.4,-21.04 284.1,-31.56 68,-11.22 136,-22.45 204,-33.66 z M 8087.16,6336.3 c 19.63,-14.72 39.27,-29.45 58.9,-44.18 30.85,-18.23 61.72,-36.47 92.57,-54.7 14.47,-8.41 38.94,-9.7 46.28,-25.24 -34.35,5.61 -68.72,11.22 -103.08,16.83 -31.56,2.1 -63.12,4.21 -94.67,6.31 0,33.66 0,67.33 0,100.98 z M 4992.41,3.75 c 12.46,279.121 -211.38,513.621 -509.13,420.77 -63.46,-19.79 -119.16,-55.29 -166.2,-92.571 -54.77,-43.41 -96.88,-112.57 -122.03,-185.14 -19.31,-55.7465 -9,-117.9496 -58.9,-143.059 -154.27,0 -308.58,0 -462.85,0 1.41,2.10156 2.81,4.19922 4.21,6.3086 250.85,88.6914 326.6,611.3124 212.49,917.2814 -0.7,0 -1.41,0 -2.1,0 0,-27.36 0,-54.711 0,-82.051 -7.02,-46.277 -14.03,-92.578 -21.04,-138.859 C 3814.21,498.609 3705.25,344 3593.35,195.199 3542.5,127.57 3483.69,42.9297 3406.11,3.75 c -84.84,0 -169.71,0 -254.56,0 -107.28,0 -214.6,0 -321.89,0 -121.97,39.0898 -241.98,83.7188 -355.54,130.43 -31.28,12.871 -209.24,74.461 -216.7,92.57 60.12,-9.789 131.38,-15.93 199.87,-27.34 127.09,-21.199 330.95,11.84 424.97,39.969 369.73,110.621 593.52,350.601 778.42,643.781 131.24,208.08 287.9,558.75 559.62,614.31 110.17,22.53 256.31,-41.21 319.78,-79.94 23.14,-16.13 46.29,-32.26 69.43,-48.39 -3.5,4.2 -7.01,8.41 -10.52,12.62 -13.32,14.73 -26.65,29.45 -39.97,44.18 -93.05,115.57 -320.83,256.61 -536.48,172.52 -144.01,-56.15 -251.09,-166.92 -328.2,-290.33 -39.3,-62.9 -70.7,-138.38 -98.88,-210.38 -11.15,-28.51 -15.06,-76.84 -35.76,-96.78 -0.71,0 -1.41,0 -2.11,0 0,2.8 0,5.61 0,8.42 55.37,147.1 16.97,388.97 -23.14,515.44 -99.73,314.41 -317.86,521.45 -624.84,629.04 -80.21,28.12 -252.35,72.81 -372.38,52.6 -146.61,-24.69 -263.13,-41.65 -368.17,-103.09 -77.2,-45.15 -140.08,-108.45 -225.11,-143.06 -147.09,-59.86 -358.57,-44.37 -492.3,12.62 -24.58,10.48 -59.23,16.98 -75.74,35.76 0.7,1.41 1.4,2.82 2.1,4.21 122.1,-2.76 244.94,32.54 347.14,61.02 299.34,83.4 569.37,170.79 725.82,395.52 124.04,178.16 140.54,459.65 355.55,547 193.68,78.68 407.95,-73.88 456.53,-201.97 57.98,-152.87 -47.77,-288.85 -155.68,-321.89 -151.35,-46.35 -301.16,106.94 -241.94,248.25 33.35,79.59 154.83,121.21 237.73,58.91 36.63,-27.53 39.65,-65.03 61.01,-109.39 1.41,0.69 2.81,1.39 4.21,2.09 0.42,111.82 -126.63,222.42 -252.46,170.42 -138.93,-57.42 -151.73,-233.48 -58.91,-349.24 155.08,-193.42 530.29,-34.81 473.37,246.15 -27.85,137.4 -124.35,230.18 -239.84,279.8 -23.95,10.3 -106.34,20.51 -122.02,31.57 1.4,0.7 2.8,1.4 4.2,2.1 99.61,40.18 178.57,66.75 231.43,151.48 86.59,138.79 -1.69,283.17 -109.4,334.5 13.32,-11.91 26.65,-23.84 39.97,-35.76 28.14,-28.17 55.31,-70.63 67.32,-113.6 45.36,-162.25 -116.07,-280.72 -225.11,-313.48 -61.95,-18.61 -135.22,-13.17 -189.34,-35.76 -42.62,-17.78 -92.38,-50.25 -119.92,-84.16 -12.63,-16.12 -25.25,-32.26 -37.87,-48.38 -1.41,0.69 -2.81,1.4 -4.21,2.1 0,0.7 0,1.41 0,2.1 32.37,39.06 34.45,119.43 48.39,174.62 26.23,103.85 27.39,202.98 46.28,321.89 0.71,43.47 1.41,86.97 2.11,130.43 -3.51,42.78 -7.01,85.57 -10.52,128.34 -6.31,39.97 -12.63,79.95 -18.93,119.92 41.63,30.95 79.58,63.39 132.53,84.15 239.89,94.06 472.08,-128.51 536.48,-277.7 16.66,-38.58 12.03,-86.45 27.35,-126.23 0.71,0 1.41,0 2.11,0 11.65,81.27 20.43,185.67 0,265.08 -43.48,168.94 -191.18,315.03 -422.87,244.04 -125.98,-38.59 -187.54,-105.57 -277.71,-174.61 -1.4,2.1 -2.81,4.2 -4.21,6.31 -7.71,35.76 -15.43,71.53 -23.14,107.29 -26.65,79.94 -53.3,159.9 -79.94,239.84 -87.92,213.63 -197.94,402.11 -258.78,641.67 -48.08,189.33 -4.23,403.89 77.84,519.65 78.36,110.52 201.24,193.45 345.03,237.74 37.87,7.01 75.74,14.02 113.61,21.03 18.23,1.41 36.47,2.81 54.7,4.21 -1.4,0 -2.8,0 -4.21,0 -68.33,28.57 -253.61,-12.14 -302.95,-29.45 -192.26,-67.46 -322.5,-175.9 -395.52,-361.86 -16.84,-42.87 -24.81,-94.33 -33.66,-143.07 -0.7,-19.63 -1.41,-39.27 -2.11,-58.9 -2.1,1.4 -4.2,2.8 -6.31,4.21 -15.15,155.46 -92.52,317.69 -58.9,511.23 70.64,406.75 250.23,665.68 612.21,778.42 113.99,35.5 290.29,70.2 443.91,44.18 117.18,-19.85 225.87,-29.69 328.2,-61.01 179.55,-54.97 345.99,-125.02 490.19,-216.7 25.55,-16.24 92.16,-197.39 115.72,-237.73 91.02,-155.92 197.25,-285.27 302.95,-422.87 237.16,-308.75 474.97,-625 685.85,-959.36 115.26,-182.73 222.25,-367.6 334.51,-555.41 82.27,-137.64 159.9,-284.24 210.38,-452.32 16.01,-53.29 17.32,-107.47 27.36,-168.31 9.15,-55.48 10.06,-139.18 0,-195.65 -69.96,-392.38 -254.67,-521.06 -450.23,-774.22 -54.16,-70.11 -99.09,-144.07 -145.16,-223 -89.43,-153.22 -167.84,-413.23 -103.09,-647.99 66.36,-240.58 216.59,-393.48 414.46,-502.81 63.85,-35.301 144.04,-58.43 220.9,-77.84 23.49,-5.937 89.58,-5.57 98.88,-25.258 -51.85,-15.851 -84.74,-50.023 -122.02,-79.941 C 5403.94,605.152 5360.07,407.949 5286.95,167.852 5266.61,113.16 5246.27,58.4414 5225.94,3.75 c -77.84,0 -155.7,0 -233.53,0 z m -23.14,7083.62 c 477.17,7.52 794.74,-174.1 936.21,-502.82 22.57,-52.44 39.77,-112.02 52.59,-172.51 108.52,-512.13 -279.03,-819.57 -624.84,-927.79 -122.05,-38.2 -304.98,-75.13 -462.84,-42.08 -312.13,65.35 -531.9,229.92 -641.67,496.51 -115.12,279.55 -34.27,616.52 153.57,761.59 235.01,181.48 645.3,176.83 818.4,-61.01 86.52,-118.89 104.85,-305.07 12.62,-435.5 -38.9,-55.02 -97.12,-108.61 -168.31,-130.44 -28.04,-4.2 -56.1,-8.41 -84.15,-12.62 270.69,-41.13 485.02,183.34 399.73,460.74 -36.52,118.77 -122.92,207.08 -220.9,265.09 -153.9,91.12 -405.02,106.05 -597.49,37.86 -266.64,-94.46 -459.88,-304.18 -458.64,-666.91 -2.8,1.4 -5.61,2.8 -8.41,4.2 -20.34,15.43 -40.68,30.86 -61.01,46.29 -214.82,161.93 -198.65,476.8 4.2,639.57 336.33,269.88 1086.89,156.98 1317.01,-128.34 66.5,-82.45 120.09,-159.43 145.16,-286.12 44.82,-226.54 -107.33,-393.82 -248.25,-454.43 -47.12,-20.26 -122.6,-51.77 -195.66,-39.97 -157,25.35 -274.21,88.19 -326.1,216.69 -68,168.42 39.72,336.39 166.21,374.49 34.26,10.32 71.64,2.13 107.29,0 -0.7,1.4 -1.4,2.8 -2.1,4.21 -46.84,15.13 -101.08,44.57 -174.62,31.56 -217.63,-38.52 -379.92,-262.99 -271.4,-519.65 85.13,-201.33 367.85,-369.97 669.03,-277.71 78.26,23.97 146.39,58.39 206.17,100.98 177.73,126.61 281.21,413.28 166.21,679.54 -82.8,191.71 -251.15,341 -441.81,424.98 -82.95,36.53 -172.4,60.81 -273.5,79.94 -53.99,5.61 -108,11.22 -161.99,16.83 0.7,1.41 1.4,2.81 2.1,4.21 89.05,4.21 178.13,8.42 267.19,12.62 z m 5960.13,456.54 c 114.3,0 228.7,0 343,0 -3.2,-91.13 -9.6,-194.73 6.3,-279.81 10.6,-57.24 31.5,-112.16 31.5,-172.52 -0.7,-70.82 -1.4,-141.66 -2.1,-212.48 -4.2,4.2 -8.4,8.41 -12.6,12.62 -44,21.5 -82.8,74.22 -117.8,107.29 -119.5,112.89 -241.1,323.67 -248.3,544.9 z m -481.7,0 c 157.7,0 315.6,0 473.3,0 -1.8,-211.56 52.7,-403.86 132.6,-540.69 37.4,-64.2 78.7,-127.15 105.2,-201.97 35.2,-99.52 30.1,-274.36 151.4,-284.01 0,-28.75 0,-57.51 0,-86.26 -67.3,7.01 -134.6,14.02 -201.9,21.04 -94.7,2.1 -189.4,4.2 -284.1,6.3 -49.7,-0.69 -99.5,-1.4 -149.3,-2.1 -149.5,-23.25 -300.6,-15.1 -441.8,-42.08 -76.5,-14.72 -152.9,-29.45 -229.3,-44.18 -62.45,-18.23 -124.88,-36.47 -187.29,-54.69 6.35,16.77 24.82,21.42 37.87,31.56 33.66,35.05 67.33,70.12 100.98,105.19 51.34,65.8 102.44,140.46 168.34,191.44 132.4,102.45 386.4,203.63 610.1,115.72 57.2,-22.48 107.2,-54.88 151.5,-90.47 18.2,-20.33 36.4,-40.67 54.7,-61.01 -16.5,47.83 -57.1,89.2 -86.3,126.23 -132.3,167.57 -371.9,269.96 -633.3,155.68 -149,-65.18 -249,-186.23 -328.15,-321.89 -52.71,-90.33 -83.09,-190.28 -145.17,-269.28 -21,-26.73 -68.73,-35.05 -98.88,-52.6 -42.77,-25.95 -85.55,-51.9 -128.33,-77.84 -164.55,-110.99 -366.26,-312.11 -414.46,-534.38 -1.4,-0.7 -2.8,-1.4 -4.21,-2.1 -1.4,0.7 -2.8,1.4 -4.2,2.1 -13.02,36.19 -47.16,64.24 -69.43,92.57 -86.04,109.47 -190.29,199.11 -305.05,279.81 -44.18,25.95 -88.37,51.9 -132.55,77.84 1.41,1.4 2.8,2.81 4.21,4.21 98.09,-42.77 327.92,40.29 385,69.43 193.02,98.52 323.13,249.42 368.17,496.5 18.81,103.15 -11.39,227.65 6.31,338.72 3.51,45.58 7.02,91.17 10.53,136.75 30.16,165.55 70,295.08 191.44,368.17 55.41,33.35 114.28,46.28 204.08,46.29 206.75,0.02 358.99,-91.37 420.79,-231.43 66.8,-151.5 -23,-342.67 -130.5,-391.31 8.2,24.64 39.9,35.55 54.7,54.7 23.6,30.34 45.2,68.16 56.8,109.4 53.9,190.45 -99.1,379.03 -225.07,422.87 0,-0.7 0,-1.4 0,-2.1 21.04,-20.34 42.08,-40.68 63.11,-61.01 55.16,-69.65 79.26,-138.98 94.66,-252.46 4.9,-35.79 -5.4,-85.51 -12.6,-113.61 -37.8,-148.14 -153.92,-256.22 -334.52,-176.73 -30.8,13.57 -62.27,30.29 -82.04,54.71 -30.48,37.63 -71.38,97.78 -56.81,176.72 19.53,105.83 122.9,229.98 260.88,170.41 185.09,-79.9 109.64,-380.55 -138.86,-311.37 0.71,-1.4 1.41,-2.81 2.1,-4.2 283.35,-96.53 350.65,280.53 124.13,342.92 -50.43,13.88 -104.54,-2.3 -136.74,-18.94 -144.73,-74.74 -179.24,-289.85 -39.97,-397.62 228.72,-177 605.33,28.36 555.43,328.19 -27.3,163.6 -94.2,204.66 -185.2,298.75 0,0.7 0,1.41 0,2.11 105.9,0 211.8,0 317.7,0 11.3,-42.41 44.4,-81.7 58.9,-128.34 8.5,-27.14 0.7,-69.16 12.6,-98.87 5.7,38.56 11.3,77.14 16.9,115.7 -2.8,37.17 -5.6,74.34 -8.4,111.51 z m -2049.17,0 c 373.03,-0.7 746.2,-1.41 1119.23,-2.11 -0.7,-1.4 -1.39,-2.8 -2.1,-4.2 -92.27,-39.94 -147.14,-202.89 -183.03,-305.06 -91.82,-261.38 -138.92,-556.41 -286.13,-761.59 -46.29,-64.53 -109.68,-115.91 -180.92,-155.68 -47.77,-26.68 -100.95,-50.77 -162,-65.22 -57.16,-13.54 -138.27,-14.26 -195.66,-2.11 -387.26,82 -392.37,462.68 -647.98,666.92 -74.09,59.2 -152.6,111.15 -254.56,143.06 -23.14,7.24 -148.81,19.43 -159.89,27.35 0.69,1.41 1.39,2.8 2.1,4.21 70.12,9.11 140.26,18.23 210.38,27.35 36.46,-1.4 72.94,-2.81 109.4,-4.21 206.84,-33.19 335.75,-96.85 427.08,-241.94 39.69,-63.04 72.55,-137.52 96.78,-214.59 23.4,-74.43 39.71,-144.93 75.73,-204.07 19.56,-32.1 55.66,-86.86 98.89,-92.57 0.69,2.1 1.4,4.2 2.1,6.31 10.52,47.68 21.04,95.38 31.56,143.06 69.39,344.11 -195.52,580.67 -431.29,654.29 -54.99,17.17 -114.45,21.73 -178.83,31.56 -32.95,0 -65.92,0 -98.87,0 90.09,43.05 304.01,12.46 380.79,-14.72 193.69,-68.58 455.93,-325.74 401.83,-624.85 -7.53,-41.68 -14.6,-84.06 -29.45,-119.92 -7.01,-13.32 -14.03,-26.65 -21.04,-39.97 0.7,0 1.4,0 2.11,0 98.17,43.54 178.04,99.84 220.89,197.76 83.18,190.07 6.69,398.48 -86.25,519.65 -107.05,139.56 -260.26,194.13 -475.46,229.32 -40.68,0 -81.36,0 -122.03,0 -15.43,-4.91 -30.86,-9.82 -46.28,-14.73 1.4,2.11 2.8,4.21 4.2,6.31 26.64,14.03 53.3,28.06 79.95,42.08 65.26,38.28 132.01,71.84 195.66,109.4 29.41,17.36 83.83,31.6 103.09,58.91 z m -456.54,0 c 110.09,0 220.22,0 330.3,0 -48.13,-52.64 -144.68,-95.86 -208.28,-134.65 -158.38,-96.61 -321.14,-189.3 -515.44,-250.35 -28.04,-10.52 -56.1,-21.04 -84.15,-31.56 2.1,2.8 4.2,5.61 6.31,8.41 44.55,14.19 77.74,46.06 111.51,71.53 89.48,67.5 167.77,142.63 246.14,220.91 34.36,34.32 92.13,71.08 113.61,115.71 z m -1157.11,0 c 3.84,-63.5 18.94,-143.96 6.31,-214.59 -47.61,-266.32 -210.93,-395.12 -485.98,-435.5 0,-0.7 0,-1.4 0,-2.1 386.62,6.73 588.16,251.5 544.89,652.19 58.9,0 117.82,0 176.72,0 100.97,-75.49 250.72,-127.22 414.46,-71.53 51.98,17.68 90.06,50.12 132.54,71.53 58.2,-0.7 116.41,-1.41 174.62,-2.11 -2.1,-2.1 -4.21,-4.2 -6.31,-6.31 -24.54,-59.61 -77.79,-107.65 -115.71,-155.68 -123.7,-156.66 -307.05,-263.17 -502.83,-347.13 -300.01,-128.68 -629.31,-225.18 -772.11,-509.14 1.41,0.71 2.82,1.41 4.21,2.11 30.62,68.07 99.11,128.51 155.69,172.51 187.36,145.72 594.26,326.54 932,220.91 277.3,-86.74 409.52,-290.05 464.95,-601.7 13.91,-78.19 13.41,-187.69 -2.11,-265.09 -20.56,-102.59 -46.83,-197.47 -92.57,-275.6 -88.43,-151.06 -214.52,-263.5 -385,-332.4 -45.95,-18.58 -98.28,-28.03 -151.47,-37.87 -116.11,-21.5 -231.14,14.74 -307.16,48.38 -170.62,75.52 -272.31,232.52 -321.89,429.19 -13.73,54.42 -11.28,106.25 -21.04,168.3 -22.6,143.78 15.62,296.13 56.81,391.32 61.07,141.17 248.35,272.62 460.74,189.35 177.95,-69.78 327.5,-298.89 223.01,-540.69 -44.54,-103.07 -141.48,-180.15 -260.88,-208.28 -220.88,-52.03 -397.3,186.18 -334.51,403.93 35.91,124.59 244.55,238.15 334.51,86.26 9.49,-16.03 18.13,-48.62 10.52,-73.63 -22.77,-74.75 -55.99,-22.69 -109.4,-33.66 -28.7,-5.9 -59.03,-40.26 -48.39,-84.16 25.73,-106.16 165.02,-56.66 201.96,4.21 15.84,26.09 27.32,71.1 18.94,113.61 -34.93,177.28 -259.67,256.56 -380.79,105.19 -23.47,-29.32 -46.48,-63.4 -58.91,-103.09 -25.05,-79.9 -11.32,-180.97 16.83,-246.15 99.56,-230.46 368.81,-287.12 584.86,-124.12 112.59,84.93 189.53,284.76 117.82,469.15 -68.34,175.74 -271.8,365.27 -536.48,284.02 -57.38,-17.61 -108.87,-48.63 -151.47,-82.05 -165.41,-129.76 -258.34,-481.81 -172.51,-763.69 60.39,-198.38 178.81,-343.11 359.75,-420.77 160.73,-68.99 409.86,-57.9 563.83,8.42 38.56,20.33 77.14,40.67 115.7,61.01 18.59,12.3 35.69,33.25 58.92,39.97 0,-2.81 0,-5.61 0,-8.42 -18.59,-58.11 -25.91,-115.99 -48.39,-168.3 -76.04,-176.94 -219.38,-312.63 -395.53,-389.21 -408.04,-177.41 -915.31,7.97 -1087.68,284.02 -74.37,119.1 -129.29,316.88 -92.57,517.54 32.96,180.12 107.19,378.6 67.32,605.9 -26.23,149.59 -66.95,276.95 -138.84,380.8 -25.95,35.06 -51.91,70.13 -77.85,105.19 -18.6,23.32 -57.38,44.01 -67.32,73.64 460.91,-102.97 921.86,128.28 841.53,614.32 28.75,0 57.51,0 86.26,0 z m -835.22,0 c 198.44,0 396.94,0 595.38,0 7.93,-65.77 27.05,-139.65 8.42,-212.49 -66.24,-259.02 -390.34,-425.28 -734.24,-338.72 -100.27,30.16 -200.58,60.32 -300.85,90.47 0.7,1.4 1.4,2.8 2.1,4.2 51.68,-5.14 95.07,12.36 132.54,27.36 177.5,71.01 250.32,227.79 296.65,429.18 z m -549.11,0 c 159.18,0 318.41,0 477.58,0 0,-0.7 0,-1.41 0,-2.11 -114.2,-305.05 -235.62,-391.28 -652.19,-391.31 -79.94,1.4 -159.9,2.81 -239.84,4.21 -22.87,0.69 -78.14,-7.79 -86.26,4.21 205,15.5 371.21,161.57 456.53,300.84 15.12,24.69 37.46,52.64 44.18,84.16 z m -408.14,0 c 76.43,-0.7 152.89,-1.41 229.32,-2.11 -81.04,-164.77 -221.6,-255.03 -399.73,-323.99 -24.54,-9.81 -49.09,-19.64 -73.64,-29.45 0.7,2.1 1.41,4.21 2.11,6.31 112.47,48.93 221.04,206.1 241.94,349.24 z m -803.67,0 c 101.68,0 203.38,0 305.06,0 -25.25,-160.8 -307.28,-185.16 -305.06,0 z m -525.96,0 c 153.57,-0.7 307.18,-1.41 460.75,-2.11 -1.41,-0.7 -2.81,-1.4 -4.21,-2.1 -88.02,-66.51 -474.17,-134.58 -652.2,-105.19 -33.17,5.47 -174.53,-1.27 -185.13,14.72 114.93,-2.68 204.68,21.01 286.12,52.6 28.87,11.2 77.76,18.8 94.67,42.08 z m -812.08,0 c 180.91,0 361.88,0 542.79,0 -1.4,-2.11 -2.8,-4.21 -4.21,-6.31 -129.76,-36.89 -264.45,-52.56 -418.66,-21.04 -34,6.94 -98.76,5.67 -119.92,27.35 z m -424.97,0 c 106,0.8 240.57,13.34 309.26,-27.35 37.65,-22.31 66.65,-84.56 92.57,-119.92 52.75,-71.97 116.74,-143.73 191.45,-193.55 56.95,-37.98 126.68,-67.76 201.97,-86.26 40.67,-4.91 81.35,-9.82 122.02,-14.73 -0.7,-1.4 -1.4,-2.8 -2.11,-4.21 -90.18,-2.44 -175.95,-45.21 -286.11,-27.35 -292.6,47.44 -414.44,159.48 -549.11,361.86 -26.65,37.17 -53.3,74.34 -79.94,111.51 z m -1068.75,0 c 105.18,0 210.39,0 315.57,0 0,-0.7 0,-1.41 0,-2.11 -2.1,-7.01 -4.21,-14.02 -6.31,-21.03 0.7,0 1.4,0 2.1,0 2.11,1.4 4.21,2.8 6.31,4.21 8.6,33.91 114.31,18.93 155.69,18.93 164.78,0 329.62,0 494.4,0 16.13,-44.18 32.26,-88.37 48.39,-132.54 75.09,-236.66 140.15,-395.66 347.13,-500.72 95.11,-48.27 252.62,-73.22 378.7,-33.66 135.85,42.64 220.74,126.98 323.98,199.87 58.94,41.6 199.21,94.68 237.74,145.16 -40.79,-14.65 -83.34,-32.2 -132.54,-42.07 -233.64,-46.9 -417.86,90.97 -532.28,183.03 -27.37,22.03 -116.38,97.53 -126.23,128.33 304.67,-53.46 739.99,-151.42 1083.48,-65.22 63.01,15.81 125.99,36.29 172.52,69.43 17.08,12.17 30.56,39.52 48.38,48.39 -4.7,-240.8 356.05,-245.68 353.45,0 84.84,0 169.72,0 254.57,0 2.04,-420.74 -261.81,-400.53 -557.52,-517.55 -135.17,-53.48 -251.76,-129.48 -330.31,-239.83 -52.31,-73.5 -123.08,-188.41 -98.87,-326.1 7.16,-40.73 14.73,-81.41 29.45,-115.71 14.02,-24.55 28.05,-49.09 42.08,-73.64 -0.71,0 -1.41,0 -2.11,0 -208.54,110.57 -418.33,199.18 -687.95,256.67 -441.76,94.19 -884.44,-90.54 -1066.65,-326.09 -99.55,-128.69 -133.31,-206.56 -166.2,-406.04 -0.7,-33.66 -1.41,-67.33 -2.11,-100.99 10.17,-59.83 14.86,-119.14 31.56,-172.51 11.22,-28.75 22.44,-57.51 33.66,-86.26 -0.7,0 -1.4,0 -2.1,0 -2.81,2.1 -5.61,4.21 -8.42,6.31 -12.04,28.48 -38.65,46.85 -56.8,69.43 -85.4,106.27 -195.99,168.87 -317.68,239.83 -126.95,74.04 -278.82,118.07 -408.14,193.56 -140.27,81.88 -242.986,178.5 -328.201,315.58 -63.731,102.51 -135.762,270.08 -103.09,448.11 13.832,75.37 27.969,144.14 54.699,206.18 92.508,214.7 277.712,375.05 521.752,437.6 318.53,81.65 546.48,-130.69 633.25,-334.51 31.33,-73.58 57.9,-191.87 33.67,-294.54 -41.18,-174.46 -148.32,-280.04 -302.96,-340.82 -261.13,-102.64 -498.04,54 -557.51,252.46 -52.38,174.76 61.82,319.52 195.65,347.13 161.9,33.41 350.59,-138.97 288.23,-300.85 2.1,1.4 4.21,2.81 6.31,4.21 39.74,147 32.27,266.51 -75.74,345.03 -150.2,109.2 -355.4,13 -433.39,-96.78 -22.06,-31.05 -40.45,-69.56 -52.6,-109.4 -18.14,-59.5 -15.2,-151.59 0,-210.38 56.33,-217.85 195.87,-343.15 431.29,-382.9 101.62,-17.16 197.82,18.64 260.88,46.29 239.4,104.94 459.08,427.99 319.78,782.62 -91.81,233.75 -261.33,365.92 -540.69,414.46 -67.89,11.8 -139.99,-5.28 -201.96,-6.31 -2.11,25.24 -4.21,50.49 -6.31,75.74 z m -450.226,0 c 140.946,0 281.926,0 422.866,0 5.61,-24.92 33.18,-57.78 25.25,-79.95 -325.3,-65.4 -527.722,-291.4 -629.046,-582.76 -21.367,-61.45 -28.121,-130.22 -39.972,-201.97 -5.055,-30.6 6.66,-89.87 -6.309,-109.4 -1.402,0.7 -2.809,1.4 -4.211,2.1 -3.902,283.75 33.508,507.76 113.609,711.1 39.266,86.95 78.543,173.93 117.813,260.88 z m -868.8829,0 c 129.7229,-0.7 259.4839,-1.41 389.2069,-2.11 -107.512,-228.26 -188.898,-594.09 -92.566,-900.44 15.738,-50.06 43.254,-148.51 77.843,-176.72 -19.226,72.27 -36.375,146.67 -50.496,231.42 -12.449,74.72 -7.195,174.08 4.211,244.05 17.453,107.09 22.121,201.07 46.285,296.64 27.309,108.04 66.008,207.8 96.778,307.16 82.738,-0.7 165.508,-1.41 248.25,-2.11 -37.028,-57.72 -60.992,-127.02 -88.363,-193.55 -81.176,-197.31 -197.731,-557.08 -113.606,-831.01 44.883,-146.16 138.57,-250.66 250.356,-330.31 -1.399,-1.4 -2.805,-2.81 -4.207,-4.21 -176.407,88.9 -371.254,148.28 -582.762,201.97 -68.149,17.3 -143.508,36.78 -218.801,44.18 0,29.45 0,58.91 0,88.37 106.723,-2.14 176.754,89.89 132.543,197.76 -28.621,69.82 -85.2344,109.16 -132.543,159.89 0,75.73 0,151.48 0,227.21 1.40234,-0.7 2.80859,-1.4 4.20703,-2.1 C 17.3789,6975.98 154.957,6729.02 233.523,6670.81 c -28.933,54.6 -67.007,103.27 -92.566,164.1 -81.664,194.41 -100.5429,436.34 -103.0859,709" /></g></g></svg>